<mxfile host="app.diagrams.net" modified="2023-04-06T22:28:41.540Z" agent="Mozilla/5.0 (Windows NT 10.0; Win64; x64) AppleWebKit/537.36 (KHTML, like Gecko) Chrome/111.0.0.0 Safari/537.36" etag="3evqjZdhgL0WymV0Ivvz" version="21.1.5" type="device">
  <diagram name="PÃ¡gina-1" id="kn6FGRcxqqMMB1KVcsFD">
    <mxGraphModel dx="378" dy="224" grid="1" gridSize="10" guides="1" tooltips="1" connect="1" arrows="1" fold="1" page="1" pageScale="1" pageWidth="827" pageHeight="1169" math="0" shadow="0">
      <root>
        <mxCell id="0" />
        <mxCell id="1" parent="0" />
        <mxCell id="-Oiq1CwPftZFSVWdaR2F-1" value="Produto" style="swimlane;fontStyle=1;align=center;verticalAlign=top;childLayout=stackLayout;horizontal=1;startSize=26;horizontalStack=0;resizeParent=1;resizeParentMax=0;resizeLast=0;collapsible=1;marginBottom=0;whiteSpace=wrap;html=1;" vertex="1" parent="1">
          <mxGeometry x="290" y="150" width="270" height="160" as="geometry" />
        </mxCell>
        <mxCell id="-Oiq1CwPftZFSVWdaR2F-2" value="- pdo:obj" style="text;strokeColor=none;fillColor=none;align=left;verticalAlign=top;spacingLeft=4;spacingRight=4;overflow=hidden;rotatable=0;points=[[0,0.5],[1,0.5]];portConstraint=eastwest;whiteSpace=wrap;html=1;" vertex="1" parent="-Oiq1CwPftZFSVWdaR2F-1">
          <mxGeometry y="26" width="270" height="24" as="geometry" />
        </mxCell>
        <mxCell id="-Oiq1CwPftZFSVWdaR2F-3" value="" style="line;strokeWidth=1;fillColor=none;align=left;verticalAlign=middle;spacingTop=-1;spacingLeft=3;spacingRight=3;rotatable=0;labelPosition=right;points=[];portConstraint=eastwest;strokeColor=inherit;" vertex="1" parent="-Oiq1CwPftZFSVWdaR2F-1">
          <mxGeometry y="50" width="270" height="8" as="geometry" />
        </mxCell>
        <mxCell id="-Oiq1CwPftZFSVWdaR2F-4" value="+ construct(): conexao&lt;br&gt;+ enviarProduto(nome, descricao, foto):void&lt;br&gt;+ buscarProdutos():array&lt;br&gt;+ buscarProduto(): array&lt;br&gt;+ buscarImagem(id):array" style="text;strokeColor=none;fillColor=none;align=left;verticalAlign=top;spacingLeft=4;spacingRight=4;overflow=hidden;rotatable=0;points=[[0,0.5],[1,0.5]];portConstraint=eastwest;whiteSpace=wrap;html=1;" vertex="1" parent="-Oiq1CwPftZFSVWdaR2F-1">
          <mxGeometry y="58" width="270" height="102" as="geometry" />
        </mxCell>
      </root>
    </mxGraphModel>
  </diagram>
</mxfile>
